<?xml version="1.0" encoding="UTF-8" standalone="no"?>
<!-- Uploaded to: SVG Repo, www.svgrepo.com, Generator: SVG Repo Mixer Tools -->

<svg
   fill="#000000"
   height="991.61755"
   width="917.64575"
   version="1.1"
   id="Layer_1"
   viewBox="0 0 338.65602 365.95522"
   xml:space="preserve"
   sodipodi:docname="agile-architecture.svg"
   inkscape:version="1.2.2 (b0a84865, 2022-12-01)"
   xmlns:inkscape="http://www.inkscape.org/namespaces/inkscape"
   xmlns:sodipodi="http://sodipodi.sourceforge.net/DTD/sodipodi-0.dtd"
   xmlns:xlink="http://www.w3.org/1999/xlink"
   xmlns="http://www.w3.org/2000/svg"
   xmlns:svg="http://www.w3.org/2000/svg"><defs
   id="defs54"><linearGradient
     inkscape:collect="always"
     id="linearGradient7020"><stop
       style="stop-color:#4c4c4c;stop-opacity:0;"
       offset="0"
       id="stop7016" /><stop
       style="stop-color:#a7a7a7;stop-opacity:1;"
       offset="1"
       id="stop7018" /></linearGradient><linearGradient
     inkscape:collect="always"
     xlink:href="#linearGradient7020"
     id="linearGradient7022"
     x1="-6.328528"
     y1="152.93781"
     x2="332.3275"
     y2="152.93781"
     gradientUnits="userSpaceOnUse" /></defs><sodipodi:namedview
   id="namedview52"
   pagecolor="#505050"
   bordercolor="#eeeeee"
   borderopacity="1"
   inkscape:showpageshadow="0"
   inkscape:pageopacity="0"
   inkscape:pagecheckerboard="0"
   inkscape:deskcolor="#505050"
   showgrid="false"
   inkscape:zoom="1.28375"
   inkscape:cx="294.83934"
   inkscape:cy="456.08569"
   inkscape:window-width="3440"
   inkscape:window-height="1359"
   inkscape:window-x="0"
   inkscape:window-y="25"
   inkscape:window-maximized="0"
   inkscape:current-layer="layer1" />

<g
   inkscape:groupmode="layer"
   id="layer1"
   inkscape:label="Agile"
   transform="translate(6.328528,58.93281)"
   style="display:inline"><path
     fill="#444444"
     d="m 232.47947,241.91606 c 0.95677,0.0702 1.98828,0.21081 3.01981,0.21081 14.60572,0.0172 29.22639,-0.0878 43.83211,0.0878 3.1992,0.0352 4.15596,-1.24731 3.99153,-4.84872 -0.2093,-4.69061 -0.0449,-9.39879 -0.0449,-15.19617 16.57904,14.33535 32.60497,28.1788 49.04948,42.40874 -16.32492,14.12454 -32.35084,27.98556 -49.04948,42.44388 0,-5.4636 0,-9.97853 0,-14.49346 0,-5.83252 0,-5.8501 -4.82872,-5.8501 -93.38987,0 -186.794686,0 -280.1845625,0 -4.5147657,0 -4.5147657,0 -4.5147657,-5.34062 0,-11.5772 0.1345516,-23.15438 -0.074747,-34.71404 -0.074747,-3.7595 0.9567713,-4.60277 4.0214307,-4.58519 50.2155565,0.10553 100.4311185,0.19326 150.6466745,0.0352 25.74313,-0.0878 46.05958,-12.6137 59.49923,-38.68437 24.24817,-47.08179 -1.03153,-108.744871 -47.49474,-116.685548 -35.87894,-6.131169 -69.231404,22.170618 -75.31586,65.053688 -0.642834,4.46223 -0.68768,9.04745 -1.061415,14.42319 5.87516,-0.93109 11.197214,-1.79191 17.221875,-2.74057 -9.433158,21.43274 -18.537444,42.12766 -27.776267,63.10365 -14.157228,-17.1462 -28.105165,-34.02889 -41.739159,-50.54266 3.423448,-0.66757 7.968113,-1.44056 12.467929,-2.54733 0.852125,-0.21081 2.107887,-1.82705 2.077989,-2.75814 -0.254143,-11.22586 0.403637,-22.32874 2.272332,-33.34376 0.0598,-0.3338 -0.07475,-0.72027 -0.164445,-1.37028 -9.119229,-1.82706 -17.580678,-5.69199 -25.2498,-11.911 C 4.3342981,108.82212 -5.4726094,80.450088 -0.86814723,54.590243 4.1399535,26.411438 22.228916,5.3476076 45.610021,0.14752898 60.768867,-3.2079274 74.821447,-0.01058872 87.872415,9.4057763 c 2.302225,1.6689437 3.707497,1.9148947 5.217394,-0.9837987 0.882019,-1.704079 2.212533,-3.07437 3.737398,-5.1473745 1.898588,8.9947299 3.677583,17.4097219 5.441623,25.8247129 0.59799,2.828422 1.06141,5.709547 1.76406,8.502831 0.76242,3.021667 -0.0145,4.374396 -2.73577,4.163577 C 93.433654,41.133281 85.555234,40.57111 77.69177,39.956238 75.748324,39.798119 73.819835,39.552177 71.323259,39.271091 73.266693,36.389966 75.030744,33.807495 76.959233,30.979074 72.713562,27.184424 68.034354,25.287097 63.160795,24.356 39.6003,19.823502 18.835367,41.098146 19.313752,69.118841 c 0.358789,21.503019 15.786731,40.722219 34.010239,42.549289 2.362029,0.22838 3.184255,-1.17705 4.096179,-3.25006 12.916421,-29.127456 32.36579,-49.716959 58.8265,-60.433337 61.21842,-24.805775 125.12778,19.640836 136.92297,92.389227 5.81538,35.82081 -0.80726,68.53211 -19.29987,97.85283 -0.50829,0.80813 -0.97173,1.66894 -1.42021,2.52977 -0.0898,0.15804 0.03,0.47431 0.10467,1.1419 z"
     id="path56"
     style="display:inline;fill:url(#linearGradient7022);fill-opacity:1;stroke-width:16.2059" /></g><g
   inkscape:groupmode="layer"
   id="layer2"
   inkscape:label="Architecture"
   transform="translate(6.328528,58.93281)"><g
     id="g49"
     transform="matrix(1.0954236,0,0,1.0954236,-53.804577,-58.93281)"
     style="fill:#000000;fill-opacity:1">
	<g
   id="g47"
   style="fill:#000000;fill-opacity:1">
		<g
   id="g45"
   style="fill:#000000;fill-opacity:1">
			<path
   d="m 244.352,239.382 -6.91,-6.557 c -0.348,0.367 -0.729,0.695 -1.081,1.057 L 196.747,104.239 c 5.005,-6.448 8.014,-14.514 8.014,-23.286 0,-21.005 -17.09,-38.095 -38.095,-38.095 V 25.372 c 1.267,0.195 2.524,0.329 3.79,0.562 l 1.738,-9.367 C 170.237,16.205 168.284,15.972 166.327,15.7 164.737,6.795 156.975,0 147.617,0 138.259,0 130.5,6.796 128.91,15.701 c -1.957,0.276 -3.91,0.505 -5.867,0.867 l 1.738,9.367 c 1.267,-0.233 2.524,-0.367 3.79,-0.562 v 17.486 c -21.005,0 -38.095,17.09 -38.095,38.095 0,8.771 3.01,16.838 8.01,23.281 L 58.871,233.877 c -0.352,-0.362 -0.733,-0.69 -1.081,-1.057 l -6.91,6.557 c 1.557,1.638 3.214,3.19 4.857,4.757 l -7.914,25.905 -0.205,25.2 27.91,-20.933 3.757,-12.295 c 1.014,0.61 2.005,1.281 3.024,1.852 l 4.662,-8.305 c -1.624,-0.914 -3.214,-1.952 -4.819,-2.952 l 17.533,-57.367 h 95.862 l 17.529,57.371 c -1.605,1 -3.19,2.038 -4.819,2.952 l 4.662,8.305 c 1.024,-0.576 2.01,-1.248 3.024,-1.852 l 3.757,12.295 27.919,20.929 V 270.72 l -8.124,-26.581 c 1.643,-1.567 3.305,-3.119 4.857,-4.757 z m -77.685,-187 c 15.757,0 28.571,12.814 28.571,28.571 0,9.171 -4.362,17.329 -11.1,22.557 -2.79,-9.433 -9.138,-17.333 -17.49,-22.176 0,-0.129 0.019,-0.252 0.019,-0.381 0,-10.276 -4.11,-19.595 -10.748,-26.457 3.324,-1.352 6.948,-2.114 10.748,-2.114 z m -1.581,39.348 c 5.181,4.019 8.943,9.767 10.41,16.381 -2.782,0.909 -5.744,1.414 -8.829,1.414 -3.8,0 -7.424,-0.762 -10.748,-2.114 4.219,-4.362 7.405,-9.714 9.167,-15.681 z m -17.467,10.461 c -4.362,-3.919 -7.524,-9.138 -8.833,-15.062 2.785,-0.909 5.747,-1.414 8.833,-1.414 3.086,0 6.048,0.505 8.833,1.414 -1.31,5.924 -4.471,11.143 -8.833,15.062 z m 0,-26 c -3.205,0 -6.3,0.443 -9.276,1.19 0.876,-6.985 4.286,-13.18 9.276,-17.666 4.99,4.481 8.4,10.676 9.276,17.662 -2.976,-0.743 -6.071,-1.186 -9.276,-1.186 z m -8.3,31.22 c -3.324,1.352 -6.948,2.114 -10.748,2.114 -3.086,0 -6.048,-0.505 -8.833,-1.414 1.467,-6.614 5.229,-12.362 10.41,-16.381 1.766,5.966 4.952,11.319 9.171,15.681 z m -10.748,11.637 c 6.943,0 13.438,-1.895 19.048,-5.152 5.61,3.257 12.105,5.152 19.048,5.152 3.205,0 6.3,-0.443 9.276,-1.19 -1.767,14.072 -13.781,25 -28.324,25 -14.543,0 -26.557,-10.929 -28.324,-25 2.976,0.748 6.071,1.19 9.276,1.19 z m 9.524,-99.999 c 0,-5.252 4.271,-9.524 9.524,-9.524 5.253,0 9.524,4.271 9.524,9.524 v 25.062 c -3.381,0.876 -6.576,2.19 -9.524,3.9 -2.948,-1.714 -6.143,-3.024 -9.524,-3.9 z m -9.524,33.333 c 3.8,0 7.424,0.762 10.748,2.114 -6.638,6.862 -10.748,16.181 -10.748,26.457 0,0.129 0.019,0.252 0.019,0.381 -8.352,4.843 -14.7,12.743 -17.49,22.176 C 104.362,98.281 100,90.124 100,80.953 100,65.196 112.814,52.382 128.571,52.382 Z m -61.242,216.167 -10.186,7.642 v -4.052 l 49.024,-160.448 c 1.086,0.795 2.21,1.533 3.376,2.21 0,0.133 -0.019,0.257 -0.019,0.386 0,3.79 0.576,7.443 1.61,10.9 z m 35.271,-82.834 14.776,-48.357 c 6.967,9.11 17.914,15.024 30.243,15.024 12.329,0 23.276,-5.914 30.243,-15.024 l 14.776,48.357 z m 135.496,90.476 v 0 l -10.187,-7.638 -43.804,-143.362 c 1.033,-3.462 1.61,-7.114 1.61,-10.905 0,-0.129 -0.019,-0.252 -0.019,-0.381 1.167,-0.676 2.29,-1.419 3.376,-2.21 l 49.024,160.443 z"
   id="path9"
   style="fill:#000000;fill-opacity:1" />
			
			
			
			
			
			
			
			
			
			
			
			
			
			
			
			
			
		</g>
	</g>
</g></g></svg>
